<?xml version="1.0" encoding="utf-8"?>
<!-- Generator: Adobe Illustrator 25.4.1, SVG Export Plug-In . SVG Version: 6.00 Build 0)  -->
<svg version="1.1" id="Layer_1" xmlns="http://www.w3.org/2000/svg" xmlns:xlink="http://www.w3.org/1999/xlink" x="0px" y="0px"
	 viewBox="0 0 214 58" style="enable-background:new 0 0 214 58;" xml:space="preserve">
<style type="text/css">
	.st0{fill:#FF4D4F;}
	.st1{fill:#FF888A;}
	.st2{fill:#FFC4C4;}
</style>
<g>
	<g>
		<g id="shiden-logo-mark">
			<path class="st0" d="M36.1,12.6c-4.8,1.4-11.9,4.2-18.4,10.1c-6.5,6.1-2.1,11.6-2.1,11.7c0,0-2.4-4.4,3.4-9.9
				c0.1-0.1,7.5-6.4,18.2-9.5c1.4-0.4,2.8-0.7,4.1-1l0.1,0l1.7-2.8l-0.4,0C42.7,11.2,40,11.4,36.1,12.6z"/>
			<path class="st1" d="M43.5,4.7C42.4,3.8,41.3,3,41.2,3l-0.1,0l-0.1,0c0,0-3,0.4-7.1,1.5c-7.4,2.1-17.2,6.4-22.6,15
				c-2.5,3.9-0.5,8.5-0.5,8.5l-0.1-1.2c0-0.1-0.4-12.7,25.4-20c2.3-0.6,4.7-1.2,7.2-1.8L43.8,5L43.5,4.7z"/>
			<path class="st1" d="M45,6.3c0,0-3.4,0.4-8.1,1.7c-5,1.4-12.3,4.2-18.5,9.2c-3.7,2.9-6,6.3-6.4,9.5c-0.2,1.5,1.6,4.8,1.6,4.8
				l-0.4-1.2c0-0.1-1.6-5.4,6.6-11.5c4.6-3.5,9.4-5.8,15.1-7.4c2.9-0.8,5.7-1.4,8.9-2l0.1,0l0-0.1c0.2-0.5,1.4-2.7,1.4-2.7l0.2-0.4
				L45,6.3z"/>
			<path class="st2" d="M9.1,22.5c0.3-5,4.1-9.6,11.2-13.7c3.8-2.3,8-4.2,12.5-5.5c3.8-1.1,7.1-1.4,7.1-1.4L37.3,0
				c0,0-2.4,0.3-5.9,1.3C9.3,7.6,6.6,18.4,6.8,22.7c0.4,7.6,9.4,13,9.4,13S8.6,29.9,9.1,22.5z"/>
			<path class="st0" d="M9.4,45.4c4.8-1.4,11.9-4.2,18.4-10.1c6.5-6.1,2.1-11.6,2.1-11.7c0,0,2.4,4.4-3.4,9.9
				c-0.1,0.1-7.5,6.4-18.2,9.5c-1.4,0.4-2.8,0.7-4.1,1L4,44l-1.7,2.8l0.4,0C2.7,46.8,5.4,46.6,9.4,45.4z"/>
			<path class="st1" d="M2,53.3C3.1,54.2,4.2,55,4.2,55l0.1,0l0.1,0c0,0,3-0.4,7.1-1.5c7.4-2.1,17.2-6.4,22.6-15
				c2.5-3.9,0.5-8.5,0.5-8.5l0.1,1.2c0,0.1,0.4,12.7-25.4,20C7,51.8,4.6,52.4,2,52.9L1.6,53L2,53.3z"/>
			<path class="st1" d="M0.4,51.7c0,0,3.4-0.4,8.1-1.7c5-1.4,12.3-4.2,18.5-9.2c3.7-2.9,6-6.3,6.4-9.5c0.2-1.5-1.6-4.8-1.6-4.8
				l0.4,1.2c0,0.1,1.6,5.4-6.6,11.5c-4.6,3.5-9.4,5.8-15.1,7.4c-2.9,0.8-5.7,1.4-8.9,2l-0.1,0l0,0.1c-0.2,0.5-1.4,2.7-1.4,2.7
				L0,51.7L0.4,51.7z"/>
			<path class="st2" d="M36.3,35.5c-0.3,5-4.1,9.6-11.2,13.7c-3.8,2.3-8,4.2-12.5,5.5c-3.8,1.1-7.1,1.4-7.1,1.4L8.2,58
				c0,0,2.4-0.3,5.9-1.3c22.1-6.3,24.8-17.1,24.6-21.5c-0.4-7.6-9.4-13-9.4-13S36.8,28.1,36.3,35.5z"/>
		</g>
	</g>
	<g>
		<g id="shiden-logo-type">
			<path class="st0" d="M83.4,34.8c0,0.9-0.1,1.7-0.4,2.5c-0.2,0.7-0.5,1.4-0.9,1.9c-0.4,0.6-0.8,1-1.4,1.4c-0.5,0.4-1,0.7-1.6,1
				c-0.6,0.3-1.1,0.4-1.7,0.6c-0.6,0.1-1.1,0.2-1.6,0.2H57.8v-4.7h18.1c0.9,0,1.6-0.3,2.1-0.8c0.5-0.5,0.7-1.2,0.7-2.1
				c0-0.4-0.1-0.8-0.2-1.2c-0.1-0.4-0.3-0.7-0.6-0.9c-0.2-0.3-0.5-0.5-0.9-0.6c-0.4-0.1-0.7-0.2-1.2-0.2H65.1
				c-0.8,0-1.6-0.1-2.4-0.4c-0.9-0.3-1.7-0.7-2.4-1.3c-0.7-0.6-1.4-1.4-1.9-2.4c-0.5-1-0.7-2.2-0.7-3.6c0-1.4,0.2-2.6,0.7-3.5
				c0.5-1,1.1-1.7,1.9-2.4c0.8-0.6,1.6-1,2.4-1.3c0.9-0.3,1.7-0.4,2.4-0.4h16v4.7h-16c-0.9,0-1.6,0.3-2.1,0.8
				c-0.5,0.5-0.8,1.2-0.8,2.1c0,0.9,0.3,1.6,0.8,2.1c0.5,0.5,1.2,0.8,2.1,0.8h10.8h0c0.5,0,1,0.1,1.6,0.2c0.6,0.1,1.1,0.3,1.7,0.6
				c0.6,0.3,1.1,0.6,1.6,1c0.5,0.4,0.9,0.9,1.3,1.4c0.4,0.6,0.7,1.2,0.9,1.9C83.3,33.1,83.4,33.9,83.4,34.8z M92,16.6v10.5h16.5
				V16.6h4.7v25.7h-4.7V31.9H92v10.5h-4.7V16.6H92z M123.4,16.6v25.7h-4.7V16.6H123.4z M154.7,27.4v4.2c0,1.6-0.3,3-0.8,4.3
				c-0.5,1.3-1.3,2.4-2.3,3.4c-1,0.9-2.1,1.7-3.4,2.2c-1.3,0.5-2.8,0.8-4.3,0.8h-12.7c-0.3,0-0.7-0.1-0.9-0.2
				c-0.3-0.1-0.5-0.3-0.8-0.5c-0.2-0.2-0.4-0.5-0.5-0.7c-0.1-0.3-0.2-0.6-0.2-0.9V19c0-0.3,0.1-0.6,0.2-0.9c0.1-0.3,0.3-0.5,0.5-0.8
				c0.2-0.2,0.5-0.4,0.8-0.5c0.3-0.1,0.6-0.2,0.9-0.2h12.7c1.6,0,3,0.3,4.3,0.8c1.3,0.5,2.5,1.3,3.4,2.2c1,1,1.7,2.1,2.3,3.4
				C154.4,24.4,154.7,25.9,154.7,27.4z M150,31.6v-4.2c0-0.9-0.1-1.7-0.4-2.5c-0.3-0.8-0.7-1.4-1.3-1.9c-0.5-0.5-1.2-0.9-1.9-1.2
				c-0.7-0.3-1.6-0.4-2.5-0.4h-10.3v16.4h10.3c0.9,0,1.7-0.1,2.5-0.4c0.8-0.3,1.4-0.7,1.9-1.2c0.5-0.5,1-1.2,1.3-1.9
				C149.8,33.4,150,32.5,150,31.6z M180.5,27.2v4.7h-14.8v-4.7H180.5z M182.6,37.7v4.7h-16.9c-0.7,0-1.4-0.1-2.1-0.3
				c-0.8-0.2-1.5-0.6-2.1-1.1c-0.7-0.5-1.2-1.2-1.6-2c-0.4-0.8-0.7-1.9-0.7-3.1V19c0-0.3,0.1-0.6,0.2-0.9c0.1-0.3,0.3-0.5,0.5-0.8
				c0.2-0.2,0.5-0.4,0.7-0.5c0.3-0.1,0.6-0.2,0.9-0.2h21.1v4.7h-18.8v14.5c0,0.6,0.2,1.1,0.5,1.4c0.3,0.3,0.8,0.5,1.4,0.5H182.6z
				 M213,16.6v23.7c0,0.3-0.1,0.6-0.2,0.9c-0.1,0.3-0.3,0.5-0.5,0.7c-0.2,0.2-0.5,0.4-0.7,0.5c-0.3,0.1-0.6,0.2-0.9,0.2
				c-0.3,0-0.6-0.1-0.9-0.2c-0.3-0.1-0.6-0.3-0.8-0.5l-17.1-17.8v18.1h-4.7V18.6c0-0.5,0.1-0.9,0.4-1.3c0.3-0.4,0.6-0.7,1-0.9
				c0.4-0.2,0.9-0.2,1.4-0.1c0.5,0.1,0.9,0.3,1.2,0.7l17.1,17.8V16.6H213z"/>
		</g>
	</g>
</g>
</svg>
