<svg xmlns:xlink="http://www.w3.org/1999/xlink" xmlns="http://www.w3.org/2000/svg" class="shiden-logo" viewBox="0 0 214 58" width="214"  height="58" ><defs><g id="shiden-logo-mark">
      <path d="M36.0759 12.5612C31.2666 13.9313 24.1701 16.797 17.6697 22.6711C11.1371 28.8193 15.572 34.3025 15.6179 34.3569C15.6179 34.3569 13.2238 29.9416 19.0141 24.5015C19.0876 24.4372 26.4791 18.0537 37.2288 14.9916C38.5995 14.6011 39.985 14.2761 41.3472 14.0257L41.4418 14.0084L43.1724 11.2035L42.7476 11.2335C42.7207 11.2358 40.0199 11.4376 36.0759 12.5612Z" fill="#5928B1"></path>
      <path d="M43.4743 4.70028C42.367 3.76828 41.2609 3.03074 41.2499 3.02339L41.1831 2.97989L41.1046 2.98916C41.0748 2.993 38.0907 3.36017 33.9809 4.53108C26.6277 6.62536 16.7386 10.9207 11.3839 19.4843C8.84036 23.3744 10.8875 28.029 10.8875 28.029L10.8258 26.8443C10.8191 26.7186 10.4678 14.1696 36.1907 6.84125C38.4424 6.19966 40.8605 5.6086 43.3793 5.0828L43.8203 4.99101L43.4743 4.70028Z" fill="#764BC4"></path>
      <path d="M45.0292 6.33881C44.996 6.34232 41.612 6.70246 36.8976 8.04512C31.9082 9.46678 24.643 12.2234 18.3696 17.2806C14.6704 20.1544 12.3291 23.6214 11.9458 26.7932C11.7578 28.3411 13.5719 31.6268 13.5719 31.6268L13.1905 30.4597C13.1731 30.4066 11.552 25.0907 19.7668 18.9227C24.3698 15.4659 29.1668 13.1001 34.8619 11.4779C37.7979 10.6415 40.6111 10.0921 43.7209 9.51092L43.8304 9.49045L43.8779 9.38906C44.1128 8.88533 45.2331 6.67943 45.2448 6.65736L45.4265 6.29819L45.0292 6.33881Z" fill="#764BC4"></path>
      <path d="M9.07686 22.4783C9.38676 17.4975 13.1588 12.8954 20.2967 8.79544C24.0583 6.4469 28.263 4.60177 32.7938 3.31092C36.6365 2.21613 39.8846 1.88926 39.8846 1.88926L37.2724 0C37.2484 0.00287851 34.8407 0.298725 31.4001 1.27902C9.33801 7.56408 6.60396 18.393 6.84802 22.746C7.27536 30.3353 16.2122 35.7325 16.2122 35.7325C16.2122 35.7325 8.61564 29.8997 9.07686 22.4783Z" fill="#BBA5E1"></path>
      <path d="M9.35057 45.4388C14.1599 44.0687 21.2564 41.203 27.7568 35.3289C34.2894 29.1807 29.8546 23.6975 29.8087 23.6431C29.8087 23.6431 32.2027 28.0584 26.4124 33.4985C26.3389 33.5628 18.9475 39.9463 8.19769 43.0084C6.82702 43.3989 5.44147 43.7239 4.07935 43.9743L3.9847 43.9916L2.25412 46.7965L2.67893 46.7665C2.70583 46.7642 5.40665 46.5624 9.35057 45.4388Z" fill="#5928B1"></path>
      <path d="M1.95225 53.2997C3.05955 54.2317 4.16558 54.9693 4.17666 54.9766L4.24345 55.0201L4.32196 55.0108C4.35171 55.007 7.33584 54.6398 11.4456 53.4689C18.7988 51.3746 28.6879 47.0793 34.0427 38.5157C36.5862 34.6256 34.539 29.971 34.539 29.971L34.6007 31.1557C34.6074 31.2814 34.9588 43.8304 9.23579 51.1588C6.98416 51.8003 4.56602 52.3914 2.04722 52.9172L1.60626 53.009L1.95225 53.2997Z" fill="#764BC4"></path>
      <path d="M0.397293 51.6612C0.430531 51.6577 3.81447 51.2976 8.52887 49.9549C13.5184 48.5332 20.7835 45.7766 27.0569 40.7194C30.7562 37.8457 33.0974 34.3787 33.4807 31.2069C33.6687 29.6589 31.8546 26.3732 31.8546 26.3732L32.236 27.5403C32.2534 27.5934 33.8745 32.9094 25.6597 39.0774C21.0567 42.5341 16.2597 44.8999 10.5646 46.5221C7.6286 47.3585 4.8154 47.908 1.7056 48.4891L1.59607 48.5096L1.54859 48.611C1.31371 49.1147 0.193434 51.3206 0.181722 51.3427L2.21315e-05 51.7018L0.397293 51.6612Z" fill="#764BC4"></path>
      <path d="M36.3497 35.5217C36.0398 40.5025 32.2677 45.1046 25.1298 49.2046C21.3682 51.5531 17.1635 53.3982 12.6327 54.6891C8.79006 55.7839 5.54192 56.1107 5.54192 56.1107L8.15411 58C8.17816 57.9971 10.5859 57.7013 14.0264 56.721C36.0885 50.4359 38.8226 39.607 38.5785 35.254C38.1512 27.6647 29.2143 22.2675 29.2143 22.2675C29.2143 22.2675 36.8109 28.1003 36.3497 35.5217Z" fill="#BBA5E1"></path>
    </g><g id="shiden-logo-type">
      <path d="M83.3874 34.8038C83.3874 35.7227 83.2694 36.5523 83.0334 37.2925C82.7975 38.0276 82.4871 38.6759 82.1023 39.2374C81.7176 39.799 81.2662 40.2763 80.748 40.6694C80.2351 41.0675 79.7015 41.3917 79.1475 41.6418C78.5935 41.892 78.0318 42.0783 77.4623 42.2008C76.8878 42.3182 76.3491 42.3769 75.8464 42.3769H57.7557V37.7136H75.8464C76.7493 37.7136 77.4495 37.4482 77.9471 36.9173C78.4447 36.3915 78.6935 35.687 78.6935 34.8038C78.6935 34.375 78.6268 33.9794 78.4934 33.6169C78.3652 33.2596 78.178 32.9482 77.9317 32.6827C77.6855 32.4224 77.3828 32.2207 77.0237 32.0778C76.6698 31.9349 76.2773 31.8634 75.8464 31.8634H65.0582C64.3041 31.8634 63.4884 31.7281 62.6112 31.4576C61.734 31.187 60.9183 30.7531 60.1642 30.1558C59.4153 29.5585 58.7894 28.7749 58.2867 27.805C57.7891 26.8351 57.5403 25.6507 57.5403 24.252C57.5403 22.8533 57.7891 21.6715 58.2867 20.7066C58.7894 19.7418 59.4153 18.9582 60.1642 18.3558C60.9183 17.7535 61.734 17.317 62.6112 17.0464C63.4884 16.7759 64.3041 16.6406 65.0582 16.6406H81.0251V21.3039H65.0582C64.1707 21.3039 63.4782 21.5745 62.9806 22.1156C62.4778 22.6516 62.2265 23.3637 62.2265 24.252C62.2265 25.1505 62.4778 25.86 62.9806 26.3807C63.4782 26.8963 64.1707 27.1541 65.0582 27.1541H75.8464H75.8849C76.3876 27.1695 76.9211 27.2384 77.4854 27.3609C78.0497 27.4885 78.6114 27.685 79.1706 27.9505C79.7298 28.2109 80.2633 28.5427 80.7711 28.946C81.2739 29.3441 81.7202 29.824 82.11 30.3855C82.505 30.9522 82.8154 31.598 83.0411 32.3228C83.272 33.0528 83.3874 33.8798 83.3874 34.8038ZM92.0057 16.6406V27.1541H108.473V16.6406H113.159V42.3769H108.473V31.8634H92.0057V42.3769H87.3195V16.6406H92.0057ZM123.37 16.6406V42.3769H118.676V16.6406H123.37ZM154.657 27.4068V31.6107C154.657 33.1779 154.383 34.6201 153.834 35.9371C153.29 37.2491 152.536 38.3824 151.572 39.337C150.612 40.2865 149.471 41.0318 148.148 41.5729C146.824 42.1089 145.388 42.3769 143.838 42.3769H131.18C130.842 42.3769 130.529 42.3182 130.242 42.2008C129.949 42.0783 129.698 41.9124 129.487 41.7031C129.277 41.4938 129.113 41.2462 128.995 40.9603C128.877 40.6745 128.818 40.3631 128.818 40.0261V18.9914C128.818 18.6698 128.877 18.3661 128.995 18.0802C129.113 17.7892 129.277 17.5365 129.487 17.3221C129.698 17.1077 129.949 16.9392 130.242 16.8167C130.529 16.6993 130.842 16.6406 131.18 16.6406H143.838C145.388 16.6406 146.824 16.9112 148.148 17.4523C149.471 17.9883 150.612 18.7311 151.572 19.6806C152.536 20.6352 153.29 21.7736 153.834 23.0957C154.383 24.4179 154.657 25.8549 154.657 27.4068ZM149.971 31.6107V27.4068C149.971 26.4982 149.822 25.6686 149.525 24.9182C149.233 24.1627 148.814 23.5194 148.271 22.9885C147.732 22.4525 147.086 22.039 146.332 21.748C145.583 21.452 144.752 21.3039 143.838 21.3039H133.504V37.7136H143.838C144.752 37.7136 145.583 37.5656 146.332 37.2695C147.086 36.9785 147.732 36.565 148.271 36.029C148.814 35.4981 149.233 34.86 149.525 34.1147C149.822 33.3642 149.971 32.5296 149.971 31.6107ZM180.52 27.1541V31.8634H165.715V27.1541H180.52ZM182.628 37.7136V42.3769H165.715C165.063 42.3769 164.353 42.2621 163.583 42.0324C162.814 41.8078 162.103 41.4351 161.452 40.9144C160.795 40.3937 160.246 39.7173 159.805 38.8852C159.369 38.0531 159.151 37.0347 159.151 35.8299V18.9914C159.151 18.6698 159.21 18.3661 159.328 18.0802C159.451 17.7892 159.618 17.5365 159.828 17.3221C160.039 17.1077 160.287 16.9392 160.575 16.8167C160.862 16.6993 161.175 16.6406 161.514 16.6406H182.628V21.3039H163.837V35.8299C163.837 36.4374 163.999 36.9019 164.322 37.2236C164.65 37.5503 165.128 37.7136 165.753 37.7136H182.628ZM213 16.6406V40.386C213 40.7179 212.938 41.0293 212.815 41.3202C212.687 41.6061 212.518 41.8537 212.307 42.063C212.097 42.2723 211.848 42.4357 211.561 42.5531C211.269 42.6756 210.961 42.7368 210.638 42.7368C210.35 42.7368 210.058 42.6832 209.76 42.576C209.468 42.4688 209.206 42.2953 208.976 42.0553L191.847 24.252V42.3769H187.161V18.6315C187.161 18.1516 187.294 17.7177 187.561 17.3298C187.833 16.9418 188.179 16.6534 188.6 16.4645C189.046 16.2807 189.502 16.2348 189.969 16.3266C190.441 16.4185 190.844 16.638 191.177 16.9852L208.314 34.7655V16.6406H213Z" fill="#5928B1"></path>
    </g></defs>
                      <use xlink:href="#shiden-logo-mark"></use>
                      <use xlink:href="#shiden-logo-type"></use>
                    </svg>